<?xml version="1.0" encoding="utf-8"?>
<!-- Generator: Adobe Illustrator 21.0.0, SVG Export Plug-In . SVG Version: 6.00 Build 0)  -->
<svg version="1.1" id="Layer_1" xmlns="http://www.w3.org/2000/svg" xmlns:xlink="http://www.w3.org/1999/xlink" x="0px" y="0px"
	 viewBox="0 0 216 216" style="enable-background:new 0 0 216 216;" xml:space="preserve">
<style type="text/css">
	.st0{fill:none;stroke:#010101;stroke-miterlimit:10;}
	.st1{fill:none;stroke:#010101;stroke-width:0.5;stroke-miterlimit:10;}
	.st2{fill:none;stroke:#010101;stroke-width:3;stroke-miterlimit:10;}
	.st3{fill:none;stroke:#010101;stroke-width:2;stroke-miterlimit:10;}
</style>
<polygon class="st0" points="23.1,244.2 -22.1,136.3 5.5,104 -0.8,44.2 7.5,42.3 29.1,42.5 40.5,-11 48.8,-12.9 75.1,12.3 
	107.9,-22.9 116.1,-24 130.2,15.1 152.1,15.1 152.5,16.2 177.2,16.3 178,36.9 196.8,55.6 196.9,64.9 218.6,86.5 214.3,101.5 
	224.8,130 223,140.1 232,138.3 239.3,203.5 234.3,209.4 235.3,209.2 232.8,225.7 237.1,264.2 228.4,266.1 226.6,266 219.1,315.1 
	210.3,317 173,273.9 193.4,250.1 198.3,225 192.9,159.7 189.6,160.1 170.6,99.4 126.3,48.8 83.7,43.8 52.3,74.8 33.2,147.4 
	39.7,240.5 31.4,242.4 "/>
<line class="st1" x1="52.9" y1="42.8" x2="31.9" y2="122.7"/>
<line class="st0" x1="52.9" y1="42.8" x2="44.6" y2="44.6"/>
<line class="st0" x1="7.5" y1="42.3" x2="52.9" y2="42.8"/>
<line class="st0" x1="7.5" y1="42.3" x2="-0.8" y2="44.2"/>
<line class="st0" x1="23.6" y1="124.6" x2="44.6" y2="44.6"/>
<line class="st0" x1="-0.8" y1="44.2" x2="44.5" y2="44.6"/>
<line class="st0" x1="5.5" y1="104" x2="-0.8" y2="44.2"/>
<line class="st0" x1="46.1" y1="68.6" x2="54.3" y2="66.7"/>
<line class="st0" x1="54.4" y1="66.7" x2="33.2" y2="147.4"/>
<line class="st0" x1="31.5" y1="122.7" x2="39.7" y2="240.5"/>
<line class="st0" x1="31.4" y1="242.4" x2="39.7" y2="240.5"/>
<line class="st1" x1="23.3" y1="124.5" x2="31.4" y2="242.4"/>
<line class="st0" x1="21.1" y1="93.5" x2="23.3" y2="124.5"/>
<line class="st0" x1="223.2" y1="140.2" x2="232" y2="138.3"/>
<line class="st0" x1="223.2" y1="140.2" x2="225" y2="156"/>
<line class="st1" x1="229" y1="192.2" x2="230.5" y2="205.4"/>
<line class="st0" x1="230.5" y1="205.4" x2="239.3" y2="203.5"/>
<line class="st0" x1="232" y1="138.3" x2="239.3" y2="203.5"/>
<line class="st0" x1="239.3" y1="203.5" x2="234.3" y2="209.4"/>
<line class="st0" x1="221.3" y1="203.1" x2="228.4" y2="266.1"/>
<line class="st0" x1="228.4" y1="266.1" x2="190.6" y2="264.1"/>
<line class="st0" x1="198.3" y1="225" x2="190.6" y2="264.1"/>
<line class="st0" x1="219.4" y1="141" x2="223.2" y2="140.2"/>
<line class="st0" x1="230.5" y1="205.4" x2="237.1" y2="264.2"/>
<line class="st0" x1="237.1" y1="264.2" x2="228.4" y2="266.1"/>
<line class="st0" x1="206" y1="130.3" x2="226.4" y2="185.4"/>
<line class="st0" x1="226.4" y1="185.4" x2="198.4" y2="225"/>
<line class="st0" x1="192.9" y1="159.7" x2="198.4" y2="225"/>
<line class="st1" x1="210.1" y1="115.9" x2="235.2" y2="183.5"/>
<line class="st0" x1="235.2" y1="183.5" x2="226.4" y2="185.4"/>
<line class="st0" x1="235.2" y1="183.5" x2="207.1" y2="223.1"/>
<line class="st0" x1="207.1" y1="223.1" x2="198.4" y2="225"/>
<line class="st0" x1="216.1" y1="131.9" x2="224.8" y2="130"/>
<line class="st0" x1="214.3" y1="101.5" x2="224.8" y2="130"/>
<line class="st0" x1="224.8" y1="130" x2="222.9" y2="140.1"/>
<line class="st0" x1="218.2" y1="265.5" x2="210.3" y2="317"/>
<line class="st0" x1="210.3" y1="317" x2="173" y2="273.9"/>
<line class="st0" x1="193.4" y1="250.1" x2="173" y2="273.9"/>
<line class="st0" x1="231" y1="210.1" x2="235.3" y2="209.2"/>
<line class="st0" x1="235.3" y1="209.2" x2="232.8" y2="225.7"/>
<line class="st0" x1="226.6" y1="266" x2="219.1" y2="315.1"/>
<line class="st0" x1="219.1" y1="315.1" x2="210.3" y2="317"/>
<line class="st0" x1="75.1" y1="12.3" x2="107.9" y2="-22.9"/>
<line class="st0" x1="107.9" y1="-22.9" x2="134.1" y2="49.7"/>
<line class="st0" x1="78" y1="43.2" x2="134.1" y2="49.7"/>
<line class="st0" x1="116.1" y1="-24" x2="107.9" y2="-22.9"/>
<line class="st0" x1="116.1" y1="-24" x2="142.3" y2="48.6"/>
<line class="st0" x1="142.3" y1="48.6" x2="134.1" y2="49.7"/>
<line class="st0" x1="143.9" y1="16.2" x2="152.1" y2="15.1"/>
<line class="st0" x1="130.2" y1="15.1" x2="152.1" y2="15.1"/>
<line class="st0" x1="152.1" y1="15.1" x2="152.5" y2="16.2"/>
<line class="st0" x1="131" y1="17.3" x2="169" y2="17.4"/>
<line class="st0" x1="169" y1="17.4" x2="172.1" y2="101.2"/>
<line class="st0" x1="126.3" y1="48.8" x2="172.1" y2="101.2"/>
<line class="st0" x1="130.6" y1="16.2" x2="177.2" y2="16.3"/>
<line class="st0" x1="177.2" y1="16.3" x2="169" y2="17.4"/>
<line class="st0" x1="177.2" y1="16.3" x2="180.3" y2="100.1"/>
<line class="st0" x1="180.3" y1="100.1" x2="172.1" y2="101.2"/>
<line class="st1" x1="178.4" y1="46.5" x2="188.6" y2="56.7"/>
<line class="st0" x1="188.6" y1="56.7" x2="196.8" y2="55.6"/>
<line class="st0" x1="178" y1="36.9" x2="196.8" y2="55.6"/>
<line class="st0" x1="196.8" y1="55.6" x2="196.9" y2="64.9"/>
<line class="st0" x1="178.7" y1="56.1" x2="210.4" y2="87.6"/>
<line class="st0" x1="210.4" y1="87.6" x2="189.6" y2="160.1"/>
<line class="st0" x1="170.6" y1="99.4" x2="189.6" y2="160.1"/>
<line class="st0" x1="188.6" y1="56.7" x2="218.6" y2="86.5"/>
<line class="st0" x1="218.6" y1="86.5" x2="210.4" y2="87.6"/>
<line class="st0" x1="218.6" y1="86.5" x2="206" y2="130.3"/>
<line class="st0" x1="205.6" y1="132" x2="197.8" y2="159"/>
<line class="st0" x1="197.8" y1="159" x2="189.6" y2="160.1"/>
<line class="st0" x1="83.7" y1="43.8" x2="52.3" y2="74.8"/>
<line class="st0" x1="29.1" y1="42.5" x2="40.5" y2="-11"/>
<line class="st0" x1="40.5" y1="-11" x2="84.2" y2="30.8"/>
<line class="st0" x1="45.9" y1="68.4" x2="84.2" y2="30.8"/>
<line class="st0" x1="48.8" y1="-12.9" x2="40.5" y2="-11"/>
<line class="st0" x1="48.8" y1="-12.9" x2="92.4" y2="28.9"/>
<line class="st0" x1="92.4" y1="29" x2="84.2" y2="30.8"/>
<line class="st0" x1="92.4" y1="28.9" x2="81.1" y2="40.1"/>
<line class="st1" x1="78" y1="43.2" x2="54.2" y2="66.6"/>
<line class="st0" x1="23.1" y1="244.2" x2="-22.1" y2="136.3"/>
<line class="st0" x1="-22.1" y1="136.3" x2="12.9" y2="95.3"/>
<line class="st0" x1="23.1" y1="244.2" x2="12.9" y2="95.3"/>
<line class="st0" x1="23.1" y1="244.2" x2="31.4" y2="242.4"/>
<polyline class="st0" points="5.5,104.1 12.9,95.3 21.1,93.5 "/>
<line class="st0" x1="31.9" y1="122.7" x2="23.6" y2="124.6"/>
<line class="st0" x1="78" y1="43.2" x2="81.1" y2="40.1"/>
<path class="st1" d="M12.1,189.8c-0.4,2.3-2.4,3.1-3.8,1c-1.1-1.8-1.4-3.5-1.1-5.6c0.4-2.3,2.4-3.1,3.8-1
	C12.2,186,12.5,187.6,12.1,189.8z"/>
<path class="st1" d="M9.1,121.4c-0.4,2.3-2.4,3.1-3.8,1c-1.1-1.8-1.4-3.5-1.1-5.6c0.4-2.3,2.4-3.1,3.8-1
	C9.2,117.6,9.5,119.3,9.1,121.4z"/>
<path class="st1" d="M33.1,61.8c-0.4,2.3-2.4,3.1-3.8,1c-1.1-1.8-1.4-3.5-1.1-5.6c0.4-2.3,2.4-3.1,3.8-1
	C33.2,58.1,33.5,59.7,33.1,61.8z"/>
<path class="st1" d="M66.6,31.4c-0.4,2.3-2.4,3.1-3.8,1c-1.1-1.8-1.4-3.5-1.1-5.6c0.4-2.3,2.4-3.1,3.8-1
	C66.7,27.6,67,29.3,66.6,31.4z"/>
<path class="st1" d="M123.6,36c-0.6,2.4-2.6,3.5-4.1,1.2c-1.2-1.9-1.4-3.6-0.8-5.7c0.6-2.4,2.6-3.5,4.1-1.2
	C124,32.2,124.2,33.8,123.6,36z"/>
<path class="st1" d="M164.5,75.1c-0.4,2.3-2.5,3.1-3.7,1c-1.1-1.8-1.4-3.5-1-5.6c0.5-2.6,2.2-3.4,3.7-1
	C164.6,71.4,164.9,73.1,164.5,75.1z"/>
<path class="st1" d="M191.4,130.9c-0.6,2.3-2.6,3.4-4,1.1c-1.2-1.9-1.4-3.5-0.9-5.7c0.6-2.3,2.6-3.4,4-1.1
	C191.6,127.1,191.9,128.8,191.4,130.9z"/>
<path class="st0" d="M199.9,197.5c1.5-0.5,2.5,1.7,3,2.6c0.6,1.4,0.9,2.7,0.9,4.2"/>
<path class="st1" d="M203.7,204.3c0.4,3.5-2.5,2.4-3.8-0.3c-0.7-1.5-1.6-4.9-0.1-6.4"/>
<path class="st0" d="M199.2,243.5c1.5-0.5,2.6,1.6,3,2.6c0.6,1.4,0.9,2.7,0.8,4.2"/>
<path class="st1" d="M203,250.3c-0.3,3.6-2.7,2.6-4-0.3c-0.7-1.6-1.5-5,0.1-6.5"/>
<path class="st1" d="M185.7,274.6c1.5-0.4,2.2,2,2.5,2.9c0.5,1.4,0.6,2.7,0.5,4.1"/>
<path class="st0" d="M188.7,281.6c0,0.6-0.1,1.1-0.4,1.6c-0.3,0.6-0.6,1-1.3,0.6c-1.2-0.6-1.3-1.7-1.7-2.8c-0.5-1.5-1.1-4.9,0.3-6.3
	"/>
<line class="st0" x1="32.4" y1="64.1" x2="31.9" y2="64.2"/>
<polygon class="st2" points="23.2,244.3 -22.1,136.4 5.5,104.1 -0.8,44.3 7.5,42.4 29.2,42.7 40.6,-10.9 48.8,-12.8 75.1,12.4 
	108,-22.8 116.2,-23.9 130.2,15.2 152.2,15.2 152.5,16.3 177.3,16.4 178,37 196.8,55.7 196.9,65 218.6,86.6 214.3,101.7 
	224.8,130.1 223.1,140.2 232,138.4 239.3,203.6 234.4,209.5 235.3,209.3 232.8,225.8 237.1,264.3 228.4,266.2 226.6,266.1 
	219.1,315.2 210.3,317.1 173,274 193.4,250.2 198.3,225.1 193,159.8 189.6,160.2 170.6,99.5 126.3,48.9 83.7,44 52.3,74.9 
	33.3,147.5 39.7,240.6 31.4,242.5 "/>
<polyline class="st3" points="5.5,104.1 12.9,95.3 21.1,93.5 "/>
<line class="st3" x1="207.1" y1="223.1" x2="198.3" y2="225.1"/>
<polyline class="st3" points="193.4,250.2 190.6,264.1 228.4,266.2 "/>
<polyline class="st3" points="216.1,131.9 235.2,183.5 229,192.2 221.3,203.1 "/>
<line class="st3" x1="230.5" y1="205.4" x2="232.8" y2="225.8"/>
<line class="st3" x1="206" y1="130.3" x2="214.3" y2="101.7"/>
<line class="st3" x1="188.9" y1="56.9" x2="196.9" y2="65"/>
<line class="st3" x1="178.7" y1="56.1" x2="178" y2="37"/>
<line class="st3" x1="180.3" y1="100.1" x2="171.7" y2="101.2"/>
<line class="st3" x1="197.8" y1="159" x2="193" y2="159.8"/>
<polyline class="st3" points="126.3,48.9 134.1,49.7 142.3,48.6 "/>
</svg>
